<svg width="14" height="16" viewBox="0 0 14 16" fill="none" xmlns="http://www.w3.org/2000/svg">
<path d="M12.4444 15.1042H1.55556C0.696446 15.1042 0 14.4279 0 13.5938V3.02083C0 2.18665 0.696446 1.51042 1.55556 1.51042H3.11111V0H4.66667V1.51042H9.33333V0H10.8889V1.51042H12.4444C13.3036 1.51042 14 2.18665 14 3.02083V13.5938C14 14.4279 13.3036 15.1042 12.4444 15.1042ZM1.55556 6.04167V13.5938H12.4444V6.04167H1.55556ZM1.55556 3.02083V4.53125H12.4444V3.02083H1.55556ZM10.8889 12.0833H9.33333V10.5729H10.8889V12.0833ZM7.77778 12.0833H6.22222V10.5729H7.77778V12.0833ZM4.66667 12.0833H3.11111V10.5729H4.66667V12.0833ZM10.8889 9.0625H9.33333V7.55208H10.8889V9.0625ZM7.77778 9.0625H6.22222V7.55208H7.77778V9.0625ZM4.66667 9.0625H3.11111V7.55208H4.66667V9.0625Z" fill="black" fill-opacity="0.2"/>
</svg>
