<svg width="325" height="9" viewBox="0 0 325 9" fill="none" xmlns="http://www.w3.org/2000/svg">
<path d="M324.354 4.85355C324.549 4.65829 324.549 4.34171 324.354 4.14645L321.172 0.964466C320.976 0.769204 320.66 0.769204 320.464 0.964466C320.269 1.15973 320.269 1.47631 320.464 1.67157L323.293 4.5L320.464 7.32843C320.269 7.52369 320.269 7.84027 320.464 8.03553C320.66 8.2308 320.976 8.2308 321.172 8.03553L324.354 4.85355ZM0.5 5H1.49846V4H0.5V5ZM3.49537 5H5.49228V4H3.49537V5ZM7.4892 5H9.48611V4H7.4892V5ZM11.483 5H13.4799V4H11.483V5ZM15.4769 5H17.4738V4H15.4769V5ZM19.4707 5H21.4676V4H19.4707V5ZM23.4645 5H25.4614V4H23.4645V5ZM27.4583 5H29.4552V4H27.4583V5ZM31.4522 5H33.4491V4H31.4522V5ZM35.446 5H37.4429V4H35.446V5ZM39.4398 5H41.4367V4H39.4398V5ZM43.4336 5H45.4306V4H43.4336V5ZM47.4275 5H49.4244V4H47.4275V5ZM51.4213 5H53.4182V4H51.4213V5ZM55.4151 5H57.412V4H55.4151V5ZM59.409 5H61.4059V4H59.409V5ZM63.4028 5H65.3997V4H63.4028V5ZM67.3966 5H69.3935V4H67.3966V5ZM71.3904 5H73.3873V4H71.3904V5ZM75.3842 5H77.3812V4H75.3842V5ZM79.3781 5H81.375V4H79.3781V5ZM83.3719 5H85.3688V4H83.3719V5ZM87.3657 5H89.3626V4H87.3657V5ZM91.3595 5H93.3564V4H91.3595V5ZM95.3533 5H97.3503V4H95.3533V5ZM99.3472 5H101.344V4H99.3472V5ZM103.341 5H105.338V4H103.341V5ZM107.335 5H109.332V4H107.335V5ZM111.329 5H113.326V4H111.329V5ZM115.322 5H117.319V4H115.322V5ZM119.316 5H121.313V4H119.316V5ZM123.31 5H125.307V4H123.31V5ZM127.304 5H129.301V4H127.304V5ZM131.298 5H133.295V4H131.298V5ZM135.292 5H137.288V4H135.292V5ZM139.285 5H141.282V4H139.285V5ZM143.279 5H145.276V4H143.279V5ZM147.273 5H149.27V4H147.273V5ZM151.267 5H153.264V4H151.267V5ZM155.261 5H157.258V4H155.261V5ZM159.255 5H161.252V4H159.255V5ZM163.248 5H165.245V4H163.248V5ZM167.242 5H169.239V4H167.242V5ZM171.236 5H173.233V4H171.236V5ZM175.23 5H177.227V4H175.23V5ZM179.224 5H181.221V4H179.224V5ZM183.218 5H185.215V4H183.218V5ZM187.211 5H189.208V4H187.211V5ZM191.205 5H193.202V4H191.205V5ZM195.199 5H197.196V4H195.199V5ZM199.193 5H201.19V4H199.193V5ZM203.187 5H205.184V4H203.187V5ZM207.181 5H209.178V4H207.181V5ZM211.174 5H213.171V4H211.174V5ZM215.168 5H217.165V4H215.168V5ZM219.162 5H221.159V4H219.162V5ZM223.156 5H225.153V4H223.156V5ZM227.15 5H229.147V4H227.15V5ZM231.144 5H233.141V4H231.144V5ZM235.137 5H237.134V4H235.137V5ZM239.131 5H241.128V4H239.131V5ZM243.125 5H245.122V4H243.125V5ZM247.119 5H249.116V4H247.119V5ZM251.113 5H253.11V4H251.113V5ZM255.107 5H257.104V4H255.107V5ZM259.1 5H261.097V4H259.1V5ZM263.094 5H265.091V4H263.094V5ZM267.088 5H269.085V4H267.088V5ZM271.082 5H273.079V4H271.082V5ZM275.076 5H277.073V4H275.076V5ZM279.07 5H281.067V4H279.07V5ZM283.063 5H285.06V4H283.063V5ZM287.057 5H289.054V4H287.057V5ZM291.051 5H293.048V4H291.051V5ZM295.045 5H297.042V4H295.045V5ZM299.039 5H301.036V4H299.039V5ZM303.033 5H305.03V4H303.033V5ZM307.026 5H309.023V4H307.026V5ZM311.02 5H313.017V4H311.02V5ZM315.014 5H317.011V4H315.014V5ZM319.008 5H321.005V4H319.008V5ZM323.002 5H324V4H323.002V5Z" fill="#8A9CA3"/>
</svg>
