<svg width="15" height="16" viewBox="0 0 15 16" fill="none" xmlns="http://www.w3.org/2000/svg">
<path d="M13.3448 15.6042H2.45595C1.59684 15.6042 0.900391 14.9279 0.900391 14.0938V3.52083C0.900391 2.68665 1.59684 2.01042 2.45595 2.01042H4.0115V0.5H5.56706V2.01042H10.2337V0.5H11.7893V2.01042H13.3448C14.2039 2.01042 14.9004 2.68665 14.9004 3.52083V14.0938C14.9004 14.9279 14.2039 15.6042 13.3448 15.6042ZM2.45595 6.54167V14.0938H13.3448V6.54167H2.45595ZM2.45595 3.52083V5.03125H13.3448V3.52083H2.45595ZM11.7893 12.5833H10.2337V11.0729H11.7893V12.5833ZM8.67817 12.5833H7.12261V11.0729H8.67817V12.5833ZM5.56706 12.5833H4.0115V11.0729H5.56706V12.5833ZM11.7893 9.5625H10.2337V8.05208H11.7893V9.5625ZM8.67817 9.5625H7.12261V8.05208H8.67817V9.5625ZM5.56706 9.5625H4.0115V8.05208H5.56706V9.5625Z" fill="black" fill-opacity="0.2"/>
</svg>
