<svg width="161" height="9" viewBox="0 0 161 9" fill="none" xmlns="http://www.w3.org/2000/svg">
<path d="M160.854 4.85355C161.049 4.65829 161.049 4.34171 160.854 4.14645L157.672 0.964466C157.476 0.769204 157.16 0.769204 156.964 0.964466C156.769 1.15973 156.769 1.47631 156.964 1.67157L159.793 4.5L156.964 7.32843C156.769 7.52369 156.769 7.84027 156.964 8.03553C157.16 8.2308 157.476 8.2308 157.672 8.03553L160.854 4.85355ZM0.5 5H1.5V4H0.5V5ZM3.5 5H5.5V4H3.5V5ZM7.5 5H9.5V4H7.5V5ZM11.5 5H13.5V4H11.5V5ZM15.5 5H17.5V4H15.5V5ZM19.5 5H21.5V4H19.5V5ZM23.5 5H25.5V4H23.5V5ZM27.5 5H29.5V4H27.5V5ZM31.5 5H33.5V4H31.5V5ZM35.5 5H37.5V4H35.5V5ZM39.5 5H41.5V4H39.5V5ZM43.5 5H45.5V4H43.5V5ZM47.5 5H49.5V4H47.5V5ZM51.5 5H53.5V4H51.5V5ZM55.5 5H57.5V4H55.5V5ZM59.5 5H61.5V4H59.5V5ZM63.5 5H65.5V4H63.5V5ZM67.5 5H69.5V4H67.5V5ZM71.5 5H73.5V4H71.5V5ZM75.5 5H77.5V4H75.5V5ZM79.5 5H81.5V4H79.5V5ZM83.5 5H85.5V4H83.5V5ZM87.5 5H89.5V4H87.5V5ZM91.5 5H93.5V4H91.5V5ZM95.5 5H97.5V4H95.5V5ZM99.5 5H101.5V4H99.5V5ZM103.5 5H105.5V4H103.5V5ZM107.5 5H109.5V4H107.5V5ZM111.5 5H113.5V4H111.5V5ZM115.5 5H117.5V4H115.5V5ZM119.5 5H121.5V4H119.5V5ZM123.5 5H125.5V4H123.5V5ZM127.5 5H129.5V4H127.5V5ZM131.5 5H133.5V4H131.5V5ZM135.5 5H137.5V4H135.5V5ZM139.5 5H141.5V4H139.5V5ZM143.5 5H145.5V4H143.5V5ZM147.5 5H149.5V4H147.5V5ZM151.5 5H153.5V4H151.5V5ZM155.5 5H157.5V4H155.5V5ZM159.5 5H160.5V4H159.5V5Z" fill="#8A9CA3"/>
</svg>
