<svg width="101" height="8" viewBox="0 0 101 8" fill="none" xmlns="http://www.w3.org/2000/svg">
<path d="M100.354 4.35355C100.549 4.15829 100.549 3.84171 100.354 3.64645L97.1716 0.464466C96.9763 0.269204 96.6597 0.269204 96.4645 0.464466C96.2692 0.659728 96.2692 0.976311 96.4645 1.17157L99.2929 4L96.4645 6.82843C96.2692 7.02369 96.2692 7.34027 96.4645 7.53553C96.6597 7.7308 96.9763 7.7308 97.1716 7.53553L100.354 4.35355ZM0 4.5H1V3.5H0V4.5ZM3 4.5H5V3.5H3V4.5ZM7 4.5H9V3.5H7V4.5ZM11 4.5H13V3.5H11V4.5ZM15 4.5H17V3.5H15V4.5ZM19 4.5H21V3.5H19V4.5ZM23 4.5H25V3.5H23V4.5ZM27 4.5H29V3.5H27V4.5ZM31 4.5H33V3.5H31V4.5ZM35 4.5H37V3.5H35V4.5ZM39 4.5H41V3.5H39V4.5ZM43 4.5H45V3.5H43V4.5ZM47 4.5H49V3.5H47V4.5ZM51 4.5H53V3.5H51V4.5ZM55 4.5H57V3.5H55V4.5ZM59 4.5H61V3.5H59V4.5ZM63 4.5H65V3.5H63V4.5ZM67 4.5H69V3.5H67V4.5ZM71 4.5H73V3.5H71V4.5ZM75 4.5H77V3.5H75V4.5ZM79 4.5H81V3.5H79V4.5ZM83 4.5H85V3.5H83V4.5ZM87 4.5H89V3.5H87V4.5ZM91 4.5H93V3.5H91V4.5ZM95 4.5H97V3.5H95V4.5ZM99 4.5H100V3.5H99V4.5Z" fill="white"/>
</svg>
