<svg width="638" height="8" viewBox="0 0 638 8" fill="none" xmlns="http://www.w3.org/2000/svg">
<path d="M637.854 4.35355C638.049 4.15829 638.049 3.84171 637.854 3.64645L634.672 0.464466C634.476 0.269204 634.16 0.269204 633.964 0.464466C633.769 0.659728 633.769 0.976311 633.964 1.17157L636.793 4L633.964 6.82843C633.769 7.02369 633.769 7.34027 633.964 7.53553C634.16 7.7308 634.476 7.7308 634.672 7.53553L637.854 4.35355ZM0 4.5H1.00236V3.5H0V4.5ZM3.00708 4.5H5.01179V3.5H3.00708V4.5ZM7.01651 4.5H9.02123V3.5H7.01651V4.5ZM11.0259 4.5H13.0307V3.5H11.0259V4.5ZM15.0354 4.5H17.0401V3.5H15.0354V4.5ZM19.0448 4.5H21.0495V3.5H19.0448V4.5ZM23.0542 4.5H25.059V3.5H23.0542V4.5ZM27.0637 4.5H29.0684V3.5H27.0637V4.5ZM31.0731 4.5H33.0778V3.5H31.0731V4.5ZM35.0825 4.5H37.0873V3.5H35.0825V4.5ZM39.092 4.5H41.0967V3.5H39.092V4.5ZM43.1014 4.5H45.1061V3.5H43.1014V4.5ZM47.1108 4.5H49.1155V3.5H47.1108V4.5ZM51.1203 4.5H53.125V3.5H51.1203V4.5ZM55.1297 4.5H57.1344V3.5H55.1297V4.5ZM59.1391 4.5H61.1438V3.5H59.1391V4.5ZM63.1486 4.5H65.1533V3.5H63.1486V4.5ZM67.158 4.5H69.1627V3.5H67.158V4.5ZM71.1674 4.5H73.1721V3.5H71.1674V4.5ZM75.1768 4.5H77.1816V3.5H75.1768V4.5ZM79.1863 4.5H81.191V3.5H79.1863V4.5ZM83.1957 4.5H85.2004V3.5H83.1957V4.5ZM87.2051 4.5H89.2098V3.5H87.2051V4.5ZM91.2146 4.5H93.2193V3.5H91.2146V4.5ZM95.224 4.5H97.2287V3.5H95.224V4.5ZM99.2334 4.5H101.238V3.5H99.2334V4.5ZM103.243 4.5H105.248V3.5H103.243V4.5ZM107.252 4.5H109.257V3.5H107.252V4.5ZM111.262 4.5H113.266V3.5H111.262V4.5ZM115.271 4.5H117.276V3.5H115.271V4.5ZM119.281 4.5H121.285V3.5H119.281V4.5ZM123.29 4.5H125.295V3.5H123.29V4.5ZM127.299 4.5H129.304V3.5H127.299V4.5ZM131.309 4.5H133.314V3.5H131.309V4.5ZM135.318 4.5H137.323V3.5H135.318V4.5ZM139.328 4.5H141.332V3.5H139.328V4.5ZM143.337 4.5H145.342V3.5H143.337V4.5ZM147.347 4.5H149.351V3.5H147.347V4.5ZM151.356 4.5H153.361V3.5H151.356V4.5ZM155.365 4.5H157.37V3.5H155.365V4.5ZM159.375 4.5H161.38V3.5H159.375V4.5ZM163.384 4.5H165.389V3.5H163.384V4.5ZM167.394 4.5H169.398V3.5H167.394V4.5ZM171.403 4.5H173.408V3.5H171.403V4.5ZM175.413 4.5H177.417V3.5H175.413V4.5ZM179.422 4.5H181.427V3.5H179.422V4.5ZM183.431 4.5H185.436V3.5H183.431V4.5ZM187.441 4.5H189.446V3.5H187.441V4.5ZM191.45 4.5H193.455V3.5H191.45V4.5ZM195.46 4.5H197.464V3.5H195.46V4.5ZM199.469 4.5H201.474V3.5H199.469V4.5ZM203.479 4.5H205.483V3.5H203.479V4.5ZM207.488 4.5H209.493V3.5H207.488V4.5ZM211.497 4.5H213.502V3.5H211.497V4.5ZM215.507 4.5H217.512V3.5H215.507V4.5ZM219.516 4.5H221.521V3.5H219.516V4.5ZM223.526 4.5H225.53V3.5H223.526V4.5ZM227.535 4.5H229.54V3.5H227.535V4.5ZM231.545 4.5H233.549V3.5H231.545V4.5ZM235.554 4.5H237.559V3.5H235.554V4.5ZM239.563 4.5H241.568V3.5H239.563V4.5ZM243.573 4.5H245.578V3.5H243.573V4.5ZM247.582 4.5H249.587V3.5H247.582V4.5ZM251.592 4.5H253.596V3.5H251.592V4.5ZM255.601 4.5H257.606V3.5H255.601V4.5ZM259.611 4.5H261.615V3.5H259.611V4.5ZM263.62 4.5H265.625V3.5H263.62V4.5ZM267.63 4.5H269.634V3.5H267.63V4.5ZM271.639 4.5H273.644V3.5H271.639V4.5ZM275.648 4.5H277.653V3.5H275.648V4.5ZM279.658 4.5H281.663V3.5H279.658V4.5ZM283.667 4.5H285.672V3.5H283.667V4.5ZM287.677 4.5H289.682V3.5H287.677V4.5ZM291.686 4.5H293.691V3.5H291.686V4.5ZM295.696 4.5H297.701V3.5H295.696V4.5ZM299.705 4.5H301.71V3.5H299.705V4.5ZM303.715 4.5H305.719V3.5H303.715V4.5ZM307.724 4.5H309.729V3.5H307.724V4.5ZM311.734 4.5H313.738V3.5H311.734V4.5ZM315.743 4.5H317.748V3.5H315.743V4.5ZM319.753 4.5H321.757V3.5H319.753V4.5ZM323.762 4.5H325.767V3.5H323.762V4.5ZM327.771 4.5H329.776V3.5H327.771V4.5ZM331.781 4.5H333.786V3.5H331.781V4.5ZM335.79 4.5H337.795V3.5H335.79V4.5ZM339.8 4.5H341.805V3.5H339.8V4.5ZM343.809 4.5H345.814V3.5H343.809V4.5ZM347.819 4.5H349.824V3.5H347.819V4.5ZM351.828 4.5H353.833V3.5H351.828V4.5ZM355.838 4.5H357.842V3.5H355.838V4.5ZM359.847 4.5H361.852V3.5H359.847V4.5ZM363.857 4.5H365.861V3.5H363.857V4.5ZM367.866 4.5H369.871V3.5H367.866V4.5ZM371.876 4.5H373.88V3.5H371.876V4.5ZM375.885 4.5H377.89V3.5H375.885V4.5ZM379.894 4.5H381.899V3.5H379.894V4.5ZM383.904 4.5H385.909V3.5H383.904V4.5ZM387.913 4.5H389.918V3.5H387.913V4.5ZM391.923 4.5H393.928V3.5H391.923V4.5ZM395.932 4.5H397.937V3.5H395.932V4.5ZM399.942 4.5H401.946V3.5H399.942V4.5ZM403.951 4.5H405.956V3.5H403.951V4.5ZM407.961 4.5H409.965V3.5H407.961V4.5ZM411.97 4.5H413.975V3.5H411.97V4.5ZM415.98 4.5H417.984V3.5H415.98V4.5ZM419.989 4.5H421.994V3.5H419.989V4.5ZM423.999 4.5H426.003V3.5H423.999V4.5ZM428.008 4.5H430.013V3.5H428.008V4.5ZM432.017 4.5H434.022V3.5H432.017V4.5ZM436.027 4.5H438.032V3.5H436.027V4.5ZM440.036 4.5H442.041V3.5H440.036V4.5ZM444.046 4.5H446.051V3.5H444.046V4.5ZM448.055 4.5H450.06V3.5H448.055V4.5ZM452.065 4.5H454.069V3.5H452.065V4.5ZM456.074 4.5H458.079V3.5H456.074V4.5ZM460.084 4.5H462.088V3.5H460.084V4.5ZM464.093 4.5H466.098V3.5H464.093V4.5ZM468.103 4.5H470.107V3.5H468.103V4.5ZM472.112 4.5H474.117V3.5H472.112V4.5ZM476.122 4.5H478.126V3.5H476.122V4.5ZM480.131 4.5H482.136V3.5H480.131V4.5ZM484.14 4.5H486.145V3.5H484.14V4.5ZM488.15 4.5H490.155V3.5H488.15V4.5ZM492.159 4.5H494.164V3.5H492.159V4.5ZM496.169 4.5H498.174V3.5H496.169V4.5ZM500.178 4.5H502.183V3.5H500.178V4.5ZM504.188 4.5H506.192V3.5H504.188V4.5ZM508.197 4.5H510.202V3.5H508.197V4.5ZM512.207 4.5H514.211V3.5H512.207V4.5ZM516.216 4.5H518.221V3.5H516.216V4.5ZM520.225 4.5H522.23V3.5H520.225V4.5ZM524.235 4.5H526.24V3.5H524.235V4.5ZM528.244 4.5H530.249V3.5H528.244V4.5ZM532.254 4.5H534.258V3.5H532.254V4.5ZM536.263 4.5H538.268V3.5H536.263V4.5ZM540.272 4.5H542.277V3.5H540.272V4.5ZM544.282 4.5H546.287V3.5H544.282V4.5ZM548.291 4.5H550.296V3.5H548.291V4.5ZM552.301 4.5H554.305V3.5H552.301V4.5ZM556.31 4.5H558.315V3.5H556.31V4.5ZM560.319 4.5H562.324V3.5H560.319V4.5ZM564.329 4.5H566.334V3.5H564.329V4.5ZM568.338 4.5H570.343V3.5H568.338V4.5ZM572.348 4.5H574.352V3.5H572.348V4.5ZM576.357 4.5H578.362V3.5H576.357V4.5ZM580.366 4.5H582.371V3.5H580.366V4.5ZM584.376 4.5H586.381V3.5H584.376V4.5ZM588.385 4.5H590.39V3.5H588.385V4.5ZM592.395 4.5H594.399V3.5H592.395V4.5ZM596.404 4.5H598.409V3.5H596.404V4.5ZM600.413 4.5H602.418V3.5H600.413V4.5ZM604.423 4.5H606.428V3.5H604.423V4.5ZM608.432 4.5H610.437V3.5H608.432V4.5ZM612.442 4.5H614.446V3.5H612.442V4.5ZM616.451 4.5H618.456V3.5H616.451V4.5ZM620.46 4.5H622.465V3.5H620.46V4.5ZM624.47 4.5H626.475V3.5H624.47V4.5ZM628.479 4.5H630.484V3.5H628.479V4.5ZM632.489 4.5H634.493V3.5H632.489V4.5ZM636.498 4.5H637.5V3.5H636.498V4.5Z" fill="white"/>
</svg>
