<svg width="23" height="30" viewBox="0 0 23 30" fill="none" xmlns="http://www.w3.org/2000/svg">
<path fill-rule="evenodd" clip-rule="evenodd" d="M0 1.0625H1V0H0V1.0625ZM0 5.3125V3.1875H1V5.3125H0ZM0 9.5625V7.4375H1V9.5625H0ZM0 13.8125V11.6875H1V13.8125H0ZM0.0474633 17.9806C0.016067 17.6579 0 17.3308 0 17V15.9375H1V17C1 17.1183 1.00228 17.236 1.00679 17.3531C1.01365 17.5315 1.0257 17.7084 1.04276 17.8837L0.0474633 17.9806ZM1.17901 21.7148C0.872314 21.1422 0.619742 20.5363 0.428132 19.9038L1.38517 19.6139C1.55745 20.1825 1.78459 20.7275 2.06053 21.2427L1.17901 21.7148ZM3.65597 24.7304C3.1499 24.3146 2.68539 23.8501 2.2696 23.344L3.04225 22.7092C3.13587 22.8231 3.23222 22.9347 3.33122 23.0439C3.57098 23.3083 3.82624 23.5583 4.09555 23.7927C4.15984 23.8486 4.22493 23.9036 4.2908 23.9577L3.65597 24.7304ZM7.09617 26.5719C6.46374 26.3803 5.8578 26.1277 5.28519 25.821L5.75735 24.9395C6.27253 25.2154 6.81749 25.4425 7.38613 25.6148L7.09617 26.5719ZM11 27H10C9.66915 27 9.34206 26.9839 9.01945 26.9525L9.11631 25.9572C9.29785 25.9749 9.48107 25.9872 9.66583 25.9939C9.77668 25.998 9.88808 26 10 26H11V27ZM15 27H13V26H15V27ZM19 27H17V26H19V27ZM21 27V26H22V27H21Z" fill="#FF6B00"/>
<path fill-rule="evenodd" clip-rule="evenodd" d="M19.1464 23.6464C19.3417 23.4512 19.6583 23.4512 19.8536 23.6464L22.7071 26.5L19.8536 29.3536C19.6583 29.5488 19.3417 29.5488 19.1464 29.3536C18.9512 29.1583 18.9512 28.8417 19.1464 28.6464L21.2929 26.5L19.1464 24.3536C18.9512 24.1583 18.9512 23.8417 19.1464 23.6464Z" fill="#FF6B00"/>
</svg>
