<svg width="8" height="51" viewBox="0 0 8 51" fill="none" xmlns="http://www.w3.org/2000/svg">
<path d="M3.64645 50.3536C3.84171 50.5488 4.15829 50.5488 4.35355 50.3536L7.53553 47.1716C7.7308 46.9763 7.7308 46.6597 7.53553 46.4645C7.34027 46.2692 7.02369 46.2692 6.82843 46.4645L4 49.2929L1.17157 46.4645C0.976311 46.2692 0.659728 46.2692 0.464466 46.4645C0.269204 46.6597 0.269204 46.9763 0.464466 47.1716L3.64645 50.3536ZM3.5 1C3.5 1.27614 3.72386 1.5 4 1.5C4.27614 1.5 4.5 1.27614 4.5 1H3.5ZM4.5 4C4.5 3.72386 4.27614 3.5 4 3.5C3.72386 3.5 3.5 3.72386 3.5 4H4.5ZM3.5 6C3.5 6.27614 3.72386 6.5 4 6.5C4.27614 6.5 4.5 6.27614 4.5 6H3.5ZM4.5 9C4.5 8.72386 4.27614 8.5 4 8.5C3.72386 8.5 3.5 8.72386 3.5 9H4.5ZM3.5 11C3.5 11.2761 3.72386 11.5 4 11.5C4.27614 11.5 4.5 11.2761 4.5 11H3.5ZM4.5 14C4.5 13.7239 4.27614 13.5 4 13.5C3.72386 13.5 3.5 13.7239 3.5 14H4.5ZM3.5 16C3.5 16.2761 3.72386 16.5 4 16.5C4.27614 16.5 4.5 16.2761 4.5 16H3.5ZM4.5 19C4.5 18.7239 4.27614 18.5 4 18.5C3.72386 18.5 3.5 18.7239 3.5 19H4.5ZM3.5 21C3.5 21.2761 3.72386 21.5 4 21.5C4.27614 21.5 4.5 21.2761 4.5 21H3.5ZM4.5 24C4.5 23.7239 4.27614 23.5 4 23.5C3.72386 23.5 3.5 23.7239 3.5 24H4.5ZM3.5 26C3.5 26.2761 3.72386 26.5 4 26.5C4.27614 26.5 4.5 26.2761 4.5 26H3.5ZM4.5 29C4.5 28.7239 4.27614 28.5 4 28.5C3.72386 28.5 3.5 28.7239 3.5 29H4.5ZM3.5 31C3.5 31.2761 3.72386 31.5 4 31.5C4.27614 31.5 4.5 31.2761 4.5 31H3.5ZM4.5 34C4.5 33.7239 4.27614 33.5 4 33.5C3.72386 33.5 3.5 33.7239 3.5 34H4.5ZM3.5 36C3.5 36.2761 3.72386 36.5 4 36.5C4.27614 36.5 4.5 36.2761 4.5 36H3.5ZM4.5 39C4.5 38.7239 4.27614 38.5 4 38.5C3.72386 38.5 3.5 38.7239 3.5 39H4.5ZM3.5 41C3.5 41.2761 3.72386 41.5 4 41.5C4.27614 41.5 4.5 41.2761 4.5 41H3.5ZM4.5 44C4.5 43.7239 4.27614 43.5 4 43.5C3.72386 43.5 3.5 43.7239 3.5 44H4.5ZM3.5 46C3.5 46.2761 3.72386 46.5 4 46.5C4.27614 46.5 4.5 46.2761 4.5 46H3.5ZM4.5 49C4.5 48.7239 4.27614 48.5 4 48.5C3.72386 48.5 3.5 48.7239 3.5 49H4.5ZM3.5 0V1H4.5V0H3.5ZM3.5 4V6H4.5V4H3.5ZM3.5 9V11H4.5V9H3.5ZM3.5 14V16H4.5V14H3.5ZM3.5 19V21H4.5V19H3.5ZM3.5 24V26H4.5V24H3.5ZM3.5 29V31H4.5V29H3.5ZM3.5 34V36H4.5V34H3.5ZM3.5 39V41H4.5V39H3.5ZM3.5 44V46H4.5V44H3.5ZM3.5 49V50H4.5V49H3.5Z" fill="#FF6B00"/>
</svg>
