<svg width="29" height="38" viewBox="0 0 29 38" fill="none" xmlns="http://www.w3.org/2000/svg">
<g opacity="0.3">
<rect x="0.0639648" width="28" height="38" fill="white"/>
<path fill-rule="evenodd" clip-rule="evenodd" d="M10.7036 13.4547C10.7036 13.1367 10.9332 12.8789 11.2163 12.8789H22.4956C22.7788 12.8789 23.0083 13.1367 23.0083 13.4547C23.0083 13.7726 22.7788 14.0304 22.4956 14.0304H11.2163C10.9332 14.0304 10.7036 13.7726 10.7036 13.4547Z" fill="black"/>
<path fill-rule="evenodd" clip-rule="evenodd" d="M10.0119 10.1386C10.2269 10.3456 10.2518 10.709 10.0676 10.9505L6.99138 14.9808C6.88692 15.1176 6.73142 15.1916 6.57121 15.1808C6.41099 15.1699 6.26455 15.0754 6.17552 14.9254L5.15013 13.1982C4.99306 12.9336 5.05672 12.5761 5.29232 12.3997C5.52792 12.2234 5.84624 12.2948 6.00331 12.5594L6.65329 13.6543L9.28902 10.2011C9.4733 9.95964 9.79696 9.93168 10.0119 10.1386Z" fill="black"/>
<path fill-rule="evenodd" clip-rule="evenodd" d="M10.7036 20.3638C10.7036 20.0459 10.9332 19.7881 11.2163 19.7881H22.4956C22.7788 19.7881 23.0083 20.0459 23.0083 20.3638C23.0083 20.6818 22.7788 20.9396 22.4956 20.9396H11.2163C10.9332 20.9396 10.7036 20.6818 10.7036 20.3638Z" fill="black"/>
<path fill-rule="evenodd" clip-rule="evenodd" d="M10.0119 17.0478C10.2269 17.2547 10.2518 17.6182 10.0676 17.8596L6.99138 21.8899C6.88692 22.0268 6.73142 22.1008 6.57121 22.09C6.41099 22.0791 6.26455 21.9846 6.17552 21.8346L5.15013 20.1073C4.99306 19.8428 5.05672 19.4853 5.29232 19.3089C5.52792 19.1325 5.84624 19.204 6.00331 19.4686L6.65329 20.5635L9.28902 17.1102C9.4733 16.8688 9.79696 16.8409 10.0119 17.0478Z" fill="black"/>
<path fill-rule="evenodd" clip-rule="evenodd" d="M10.7036 27.273C10.7036 26.955 10.9332 26.6973 11.2163 26.6973H22.4956C22.7788 26.6973 23.0083 26.955 23.0083 27.273C23.0083 27.591 22.7788 27.8488 22.4956 27.8488H11.2163C10.9332 27.8488 10.7036 27.591 10.7036 27.273Z" fill="black"/>
<path fill-rule="evenodd" clip-rule="evenodd" d="M10.0119 23.957C10.2269 24.1639 10.2518 24.5274 10.0676 24.7688L6.99138 28.7991C6.88692 28.936 6.73142 29.01 6.57121 28.9991C6.41099 28.9883 6.26455 28.8938 6.17552 28.7438L5.15013 27.0165C4.99306 26.752 5.05672 26.3945 5.29232 26.2181C5.52792 26.0417 5.84624 26.1132 6.00331 26.3778L6.65329 27.4727L9.28902 24.0194C9.4733 23.778 9.79696 23.75 10.0119 23.957Z" fill="black"/>
</g>
</svg>
