<svg width="29" height="38" viewBox="0 0 29 38" fill="none" xmlns="http://www.w3.org/2000/svg">
<rect x="0.0639648" width="28" height="38" fill="white"/>
<path fill-rule="evenodd" clip-rule="evenodd" d="M7.53105 10C7.54199 10 7.55296 10 7.56397 10L10.5969 10C11.0401 9.99998 11.422 9.99995 11.7279 10.0411C12.0556 10.0851 12.3698 10.1845 12.6246 10.4393C12.8795 10.6942 12.9788 11.0083 13.0229 11.3361C13.064 11.6419 13.064 12.0238 13.064 12.4671V15.5329C13.064 15.9762 13.064 16.3581 13.0229 16.6639C12.9788 16.9917 12.8795 17.3058 12.6246 17.5607C12.3698 17.8155 12.0556 17.9149 11.7279 17.9589C11.422 18 11.0401 18 10.5969 18H7.53105C7.08781 18 6.7059 18 6.40007 17.9589C6.07231 17.9149 5.75814 17.8155 5.50331 17.5607C5.24848 17.3058 5.1491 16.9917 5.10504 16.6639C5.06392 16.3581 5.06394 15.9762 5.06397 15.5329L5.06397 12.5C5.06397 12.489 5.06397 12.478 5.06397 12.4671C5.06394 12.0238 5.06392 11.6419 5.10504 11.3361C5.1491 11.0083 5.24848 10.6942 5.50331 10.4393C5.75814 10.1845 6.07231 10.0851 6.40007 10.0411C6.7059 9.99995 7.08781 9.99998 7.53105 10ZM6.53332 11.0322C6.31645 11.0613 6.24848 11.1084 6.21041 11.1464C6.17235 11.1845 6.12528 11.2525 6.09612 11.4694C6.06503 11.7006 6.06397 12.0145 6.06397 12.5V15.5C6.06397 15.9855 6.06503 16.2994 6.09612 16.5307C6.12528 16.7475 6.17235 16.8155 6.21041 16.8536C6.24848 16.8916 6.31645 16.9387 6.53332 16.9678C6.76457 16.9989 7.07843 17 7.56397 17H10.564C11.0495 17 11.3634 16.9989 11.5946 16.9678C11.8115 16.9387 11.8795 16.8916 11.9175 16.8536C11.9556 16.8155 12.0027 16.7475 12.0318 16.5307C12.0629 16.2994 12.064 15.9855 12.064 15.5V12.5C12.064 12.0145 12.0629 11.7006 12.0318 11.4694C12.0027 11.2525 11.9556 11.1845 11.9175 11.1464C11.8795 11.1084 11.8115 11.0613 11.5946 11.0322C11.3634 11.0011 11.0495 11 10.564 11H7.56397C7.07843 11 6.76457 11.0011 6.53332 11.0322Z" fill="black"/>
<path fill-rule="evenodd" clip-rule="evenodd" d="M7.53105 21C7.54199 21 7.55296 21 7.56397 21L10.5969 21C11.0401 21 11.422 21 11.7279 21.0411C12.0556 21.0851 12.3698 21.1845 12.6246 21.4393C12.8795 21.6942 12.9788 22.0083 13.0229 22.3361C13.064 22.6419 13.064 23.0238 13.064 23.4671V26.5329C13.064 26.9762 13.064 27.3581 13.0229 27.6639C12.9788 27.9917 12.8795 28.3058 12.6246 28.5607C12.3698 28.8155 12.0556 28.9149 11.7279 28.9589C11.422 29 11.0401 29 10.5969 29H7.53105C7.08781 29 6.7059 29 6.40007 28.9589C6.07231 28.9149 5.75814 28.8155 5.50331 28.5607C5.24848 28.3058 5.1491 27.9917 5.10504 27.6639C5.06392 27.3581 5.06394 26.9762 5.06397 26.5329L5.06397 23.5C5.06397 23.489 5.06397 23.478 5.06397 23.4671C5.06394 23.0238 5.06392 22.6419 5.10504 22.3361C5.1491 22.0083 5.24848 21.6942 5.50331 21.4393C5.75814 21.1845 6.07231 21.0851 6.40007 21.0411C6.7059 21 7.08781 21 7.53105 21ZM6.53332 22.0322C6.31645 22.0613 6.24848 22.1084 6.21041 22.1464C6.17235 22.1845 6.12528 22.2525 6.09612 22.4694C6.06503 22.7006 6.06397 23.0145 6.06397 23.5V26.5C6.06397 26.9855 6.06503 27.2994 6.09612 27.5307C6.12528 27.7475 6.17235 27.8155 6.21041 27.8536C6.24848 27.8916 6.31645 27.9387 6.53332 27.9678C6.76457 27.9989 7.07843 28 7.56397 28H10.564C11.0495 28 11.3634 27.9989 11.5946 27.9678C11.8115 27.9387 11.8795 27.8916 11.9175 27.8536C11.9556 27.8155 12.0027 27.7475 12.0318 27.5307C12.0629 27.2994 12.064 26.9855 12.064 26.5V23.5C12.064 23.0145 12.0629 22.7006 12.0318 22.4694C12.0027 22.2525 11.9556 22.1845 11.9175 22.1464C11.8795 22.1084 11.8115 22.0613 11.5946 22.0322C11.3634 22.0011 11.0495 22 10.564 22H7.56397C7.07843 22 6.76457 22.0011 6.53332 22.0322Z" fill="black"/>
<path fill-rule="evenodd" clip-rule="evenodd" d="M18.5311 10C18.542 10 18.553 10 18.564 10L21.5969 10C22.0401 9.99998 22.422 9.99995 22.7279 10.0411C23.0556 10.0851 23.3698 10.1845 23.6246 10.4393C23.8795 10.6942 23.9788 11.0083 24.0229 11.3361C24.064 11.6419 24.064 12.0238 24.064 12.4671V15.5329C24.064 15.9762 24.064 16.3581 24.0229 16.6639C23.9788 16.9917 23.8795 17.3058 23.6246 17.5607C23.3698 17.8155 23.0556 17.9149 22.7279 17.9589C22.422 18 22.0401 18 21.5969 18H18.5311C18.0878 18 17.7059 18 17.4001 17.9589C17.0723 17.9149 16.7581 17.8155 16.5033 17.5607C16.2485 17.3058 16.1491 16.9917 16.105 16.6639C16.0639 16.3581 16.0639 15.9762 16.064 15.5329L16.064 12.5C16.064 12.489 16.064 12.478 16.064 12.4671C16.0639 12.0238 16.0639 11.6419 16.105 11.3361C16.1491 11.0083 16.2485 10.6942 16.5033 10.4393C16.7581 10.1845 17.0723 10.0851 17.4001 10.0411C17.7059 9.99995 18.0878 9.99998 18.5311 10ZM17.5333 11.0322C17.3164 11.0613 17.2485 11.1084 17.2104 11.1464C17.1724 11.1845 17.1253 11.2525 17.0961 11.4694C17.065 11.7006 17.064 12.0145 17.064 12.5V15.5C17.064 15.9855 17.065 16.2994 17.0961 16.5307C17.1253 16.7475 17.1724 16.8155 17.2104 16.8536C17.2485 16.8916 17.3164 16.9387 17.5333 16.9678C17.7646 16.9989 18.0784 17 18.564 17H21.564C22.0495 17 22.3634 16.9989 22.5946 16.9678C22.8115 16.9387 22.8795 16.8916 22.9175 16.8536C22.9556 16.8155 23.0027 16.7475 23.0318 16.5307C23.0629 16.2994 23.064 15.9855 23.064 15.5V12.5C23.064 12.0145 23.0629 11.7006 23.0318 11.4694C23.0027 11.2525 22.9556 11.1845 22.9175 11.1464C22.8795 11.1084 22.8115 11.0613 22.5946 11.0322C22.3634 11.0011 22.0495 11 21.564 11H18.564C18.0784 11 17.7646 11.0011 17.5333 11.0322Z" fill="black"/>
<path fill-rule="evenodd" clip-rule="evenodd" d="M18.5311 21C18.542 21 18.553 21 18.564 21L21.5969 21C22.0401 21 22.422 21 22.7279 21.0411C23.0556 21.0851 23.3698 21.1845 23.6246 21.4393C23.8795 21.6942 23.9788 22.0083 24.0229 22.3361C24.064 22.6419 24.064 23.0238 24.064 23.4671V26.5329C24.064 26.9762 24.064 27.3581 24.0229 27.6639C23.9788 27.9917 23.8795 28.3058 23.6246 28.5607C23.3698 28.8155 23.0556 28.9149 22.7279 28.9589C22.422 29 22.0401 29 21.5969 29H18.5311C18.0878 29 17.7059 29 17.4001 28.9589C17.0723 28.9149 16.7581 28.8155 16.5033 28.5607C16.2485 28.3058 16.1491 27.9917 16.105 27.6639C16.0639 27.3581 16.0639 26.9762 16.064 26.5329L16.064 23.5C16.064 23.489 16.064 23.478 16.064 23.4671C16.0639 23.0238 16.0639 22.6419 16.105 22.3361C16.1491 22.0083 16.2485 21.6942 16.5033 21.4393C16.7581 21.1845 17.0723 21.0851 17.4001 21.0411C17.7059 21 18.0878 21 18.5311 21ZM17.5333 22.0322C17.3164 22.0613 17.2485 22.1084 17.2104 22.1464C17.1724 22.1845 17.1253 22.2525 17.0961 22.4694C17.065 22.7006 17.064 23.0145 17.064 23.5V26.5C17.064 26.9855 17.065 27.2994 17.0961 27.5307C17.1253 27.7475 17.1724 27.8155 17.2104 27.8536C17.2485 27.8916 17.3164 27.9387 17.5333 27.9678C17.7646 27.9989 18.0784 28 18.564 28H21.564C22.0495 28 22.3634 27.9989 22.5946 27.9678C22.8115 27.9387 22.8795 27.8916 22.9175 27.8536C22.9556 27.8155 23.0027 27.7475 23.0318 27.5307C23.0629 27.2994 23.064 26.9855 23.064 26.5V23.5C23.064 23.0145 23.0629 22.7006 23.0318 22.4694C23.0027 22.2525 22.9556 22.1845 22.9175 22.1464C22.8795 22.1084 22.8115 22.0613 22.5946 22.0322C22.3634 22.0011 22.0495 22 21.564 22H18.564C18.0784 22 17.7646 22.0011 17.5333 22.0322Z" fill="black"/>
</svg>
