<svg width="80" height="80" viewBox="0 0 80 80" fill="none" xmlns="http://www.w3.org/2000/svg">
<path d="M32.9071 59.95H52.7604M21.5625 45.7695C21.5625 51.4423 27.2353 51.4423 27.2353 51.4423H58.4332C64.106 51.4423 64.106 45.7695 64.106 45.7695V23.0803C64.106 17.4075 58.4332 17.4075 58.4332 17.4075H27.2353C21.5625 17.4075 21.5625 23.0803 21.5625 23.0803V45.7695ZM21.5625 45.7695L64.105 45.7695M48.5059 59.95H37.1613L38.5793 51.4413H47.088L48.5059 59.95Z" stroke="black" stroke-width="2" stroke-linecap="round" stroke-linejoin="round"/>
<path d="M46.4741 29.8631L42.7431 34.8908C42.667 34.9932 42.5717 35.0795 42.4626 35.1446C42.3535 35.2097 42.2328 35.2525 42.1073 35.2705C41.9818 35.2885 41.8541 35.2813 41.7314 35.2494C41.6087 35.2174 41.4934 35.1614 41.3921 35.0844C41.3562 35.057 41.3223 35.027 41.2907 34.9947L39.3642 33.0482M34.9629 32.0638C34.9629 34.1739 35.8011 36.1976 37.2932 37.6897C38.7853 39.1818 40.809 40.02 42.9191 40.02C45.0293 40.02 47.053 39.1818 48.5451 37.6897C50.0371 36.1976 50.8754 34.1739 50.8754 32.0638C50.8754 29.9537 50.0371 27.93 48.5451 26.4379C47.053 24.9458 45.0293 24.1075 42.9191 24.1075C40.809 24.1075 38.7853 24.9458 37.2932 26.4379C35.8011 27.93 34.9629 29.9537 34.9629 32.0638Z" stroke="#FF6B00" stroke-width="2" stroke-linecap="round" stroke-linejoin="round"/>
</svg>
