<svg width="80" height="80" viewBox="0 0 80 80" fill="none" xmlns="http://www.w3.org/2000/svg">
<path d="M53.8508 46.7641V56.6791C53.8508 58.1136 53.2809 59.4894 52.2666 60.5037C51.2522 61.518 49.8765 62.0879 48.442 62.0879H34.9215C33.487 62.0879 32.1112 61.518 31.0969 60.5037C30.0825 59.4894 29.5127 58.1136 29.5127 56.6791V26.9342C29.5127 25.4997 30.0825 24.1239 31.0969 23.1096C32.1112 22.0952 33.487 21.5254 34.9215 21.5254H46.6397M29.5136 53.6505H53.8508" stroke="black" stroke-width="2" stroke-linecap="round" stroke-linejoin="round"/>
<path d="M61.3097 29.6062L57.3383 34.958C57.2573 35.067 57.1558 35.1587 57.0397 35.2281C56.9236 35.2974 56.7951 35.343 56.6615 35.3621C56.5279 35.3812 56.392 35.3736 56.2613 35.3396C56.1307 35.3056 56.008 35.246 55.9002 35.164C55.862 35.1348 55.8259 35.1029 55.7922 35.0685L53.7416 32.9965M49.0566 31.9487C49.0566 34.1949 49.9489 36.349 51.5372 37.9372C53.1254 39.5255 55.2795 40.4177 57.5256 40.4177C59.7718 40.4177 61.9259 39.5255 63.5141 37.9372C65.1024 36.349 65.9946 34.1949 65.9946 31.9487C65.9946 29.7026 65.1024 27.5485 63.5141 25.9602C61.9259 24.372 59.7718 23.4797 57.5256 23.4797C55.2795 23.4797 53.1254 24.372 51.5372 25.9602C49.9489 27.5485 49.0566 29.7026 49.0566 31.9487Z" stroke="black" stroke-width="2" stroke-linecap="round" stroke-linejoin="round"/>
<path d="M61.3097 29.6062L57.3383 34.958C57.2573 35.067 57.1558 35.1587 57.0397 35.2281C56.9236 35.2974 56.7951 35.343 56.6615 35.3621C56.5279 35.3812 56.392 35.3736 56.2613 35.3396C56.1307 35.3056 56.008 35.246 55.9002 35.164C55.862 35.1348 55.8259 35.1029 55.7922 35.0685L53.7416 32.9965M49.0566 31.9487C49.0566 34.1949 49.9489 36.349 51.5372 37.9372C53.1254 39.5255 55.2795 40.4177 57.5256 40.4177C59.7718 40.4177 61.9259 39.5255 63.5141 37.9372C65.1024 36.349 65.9946 34.1949 65.9946 31.9487C65.9946 29.7026 65.1024 27.5485 63.5141 25.9602C61.9259 24.372 59.7718 23.4797 57.5256 23.4797C55.2795 23.4797 53.1254 24.372 51.5372 25.9602C49.9489 27.5485 49.0566 29.7026 49.0566 31.9487Z" stroke="#FF6B00" stroke-width="2" stroke-linecap="round" stroke-linejoin="round"/>
</svg>
