<svg width="80" height="80" viewBox="0 0 80 80" fill="none" xmlns="http://www.w3.org/2000/svg">
<path d="M66.4754 36.4636V20.8681C66.4754 20.0677 66.1597 19.3 65.5978 18.734C65.0358 18.168 64.2737 17.85 63.479 17.85H24.5218C23.7271 17.85 22.9649 18.168 22.403 18.734C21.8411 19.3 21.5254 20.0677 21.5254 20.8681V48.0335C21.5254 48.834 21.8411 49.6017 22.403 50.1677C22.9649 50.7337 23.7271 51.0517 24.5218 51.0517H35.5092M38.2129 42.3682H27.6549C27.655 40.7766 28.1041 39.2197 28.9472 37.8885C29.7903 36.5573 30.9907 35.5099 32.4011 34.8746C33.8114 34.2394 35.3703 34.0441 36.8864 34.3126C38.4025 34.5812 39.8098 35.3019 40.9356 36.3864M48.5975 25.5119H57.2811M48.5975 31.6415H60.3458M30.7197 28.3213C30.7197 28.9585 30.8452 29.5895 31.0891 30.1783C31.333 30.767 31.6904 31.302 32.141 31.7526C32.5916 32.2032 33.1265 32.5606 33.7153 32.8045C34.304 33.0483 34.935 33.1738 35.5723 33.1738C36.2095 33.1738 36.8405 33.0483 37.4293 32.8045C38.018 32.5606 38.5529 32.2032 39.0035 31.7526C39.4541 31.302 39.8116 30.767 40.0554 30.1783C40.2993 29.5895 40.4248 28.9585 40.4248 28.3213C40.4248 27.684 40.2993 27.053 40.0554 26.4643C39.8116 25.8755 39.4541 25.3406 39.0035 24.89C38.5529 24.4394 38.018 24.082 37.4293 23.8381C36.8405 23.5942 36.2095 23.4687 35.5723 23.4687C34.935 23.4687 34.304 23.5942 33.7153 23.8381C33.1265 24.082 32.5916 24.4394 32.141 24.89C31.6904 25.3406 31.333 25.8755 31.0891 26.4643C30.8452 27.053 30.7197 27.684 30.7197 28.3213Z" stroke="black" stroke-width="2" stroke-linecap="round" stroke-linejoin="round"/>
<path d="M59.8358 47.4761L54.2069 55.0615C54.0921 55.216 53.9483 55.3461 53.7837 55.4443C53.6191 55.5426 53.4369 55.6072 53.2476 55.6343C53.0583 55.6614 52.8656 55.6506 52.6805 55.6024C52.4953 55.5542 52.3214 55.4697 52.1686 55.3536C52.1144 55.3122 52.0633 55.2669 52.0156 55.2181L49.1091 52.2814M42.4688 50.7963C42.4688 53.9799 43.7334 57.0331 45.9845 59.2842C48.2357 61.5353 51.2889 62.8 54.4724 62.8C57.656 62.8 60.7092 61.5353 62.9603 59.2842C65.2115 57.0331 66.4761 53.9799 66.4761 50.7963C66.4761 47.6127 65.2115 44.5595 62.9603 42.3084C60.7092 40.0573 57.656 38.7926 54.4724 38.7926C51.2889 38.7926 48.2357 40.0573 45.9845 42.3084C43.7334 44.5595 42.4688 47.6127 42.4688 50.7963Z" stroke="black" stroke-width="2" stroke-linecap="round" stroke-linejoin="round"/>
<path d="M59.8358 47.4761L54.2069 55.0615C54.0921 55.216 53.9483 55.3461 53.7837 55.4443C53.6191 55.5426 53.4369 55.6072 53.2476 55.6343C53.0583 55.6614 52.8656 55.6506 52.6805 55.6024C52.4953 55.5542 52.3214 55.4697 52.1686 55.3536C52.1144 55.3122 52.0633 55.2669 52.0156 55.2181L49.1091 52.2814M42.4688 50.7963C42.4688 53.9799 43.7334 57.0331 45.9845 59.2842C48.2357 61.5353 51.2889 62.8 54.4724 62.8C57.656 62.8 60.7092 61.5353 62.9603 59.2842C65.2115 57.0331 66.4761 53.9799 66.4761 50.7963C66.4761 47.6127 65.2115 44.5595 62.9603 42.3084C60.7092 40.0573 57.656 38.7926 54.4724 38.7926C51.2889 38.7926 48.2357 40.0573 45.9845 42.3084C43.7334 44.5595 42.4688 47.6127 42.4688 50.7963Z" stroke="#FF6B00" stroke-width="2" stroke-linecap="round" stroke-linejoin="round"/>
</svg>
