<svg width="80" height="80" viewBox="0 0 80 80" fill="none" xmlns="http://www.w3.org/2000/svg">
<path d="M41.616 54.4115V49.9947L43.0691 50.243C43.6894 50.3483 44.3248 50.3145 44.931 50.144C45.5372 49.9735 46.0998 49.6704 46.5795 49.2558C47.0592 48.8411 47.4445 48.3249 47.7088 47.743C47.973 47.1611 48.1097 46.5276 48.1095 45.8863V42.2685L49.4604 41.9251C49.7969 41.839 50.1083 41.6718 50.3683 41.4374C50.6283 41.2031 50.8293 40.9085 50.9543 40.5785C51.0794 40.2485 51.1249 39.8926 51.0871 39.5409C51.0492 39.1892 50.929 38.852 50.7367 38.5575L48.1095 34.5422V33.441C48.1095 26.928 41.6425 21.7295 33.9405 22.4552C31.1929 22.7076 28.5957 23.846 26.5255 25.7053C24.4553 27.5646 23.02 30.0481 22.4277 32.7955C21.8354 35.5428 22.117 38.4111 23.2315 40.9843C24.3461 43.5574 26.2357 45.7016 28.6262 47.1056V54.4125" stroke="black" stroke-width="2" stroke-linecap="round" stroke-linejoin="round"/>
<path d="M58.6561 37.6375H62.1997C63.0983 37.6375 63.9601 38.0198 64.5955 38.7003C65.2309 39.3808 65.5879 40.3038 65.5879 41.2662V62.2212C65.5879 63.1836 65.2309 64.1066 64.5955 64.7871C63.9601 65.4676 63.0983 65.85 62.1997 65.85H53.726C52.8274 65.85 51.9657 65.4676 51.3303 64.7871C50.6949 64.1066 50.3379 63.1836 50.3379 62.2212V55.4562M61.2307 50.3043L56.6559 55.4862L54.695 52.5254" stroke="black" stroke-width="2" stroke-linecap="round" stroke-linejoin="round"/>
<path d="M58.6561 37.6375H62.1997C63.0983 37.6375 63.9601 38.0198 64.5955 38.7003C65.2309 39.3808 65.5879 40.3038 65.5879 41.2662V62.2212C65.5879 63.1836 65.2309 64.1066 64.5955 64.7871C63.9601 65.4676 63.0983 65.85 62.1997 65.85H53.726C52.8274 65.85 51.9657 65.4676 51.3303 64.7871C50.6949 64.1066 50.3379 63.1836 50.3379 62.2212V55.4562M61.2307 50.3043L56.6559 55.4862L54.695 52.5254" stroke="#FF6B00" stroke-width="2" stroke-linecap="round" stroke-linejoin="round"/>
</svg>
