<svg width="80" height="80" viewBox="0 0 80 80" fill="none" xmlns="http://www.w3.org/2000/svg">
<path d="M53.8498 46.7641V56.6791C53.8498 58.1136 53.2799 59.4894 52.2656 60.5037C51.2512 61.518 49.8755 62.0879 48.441 62.0879H34.9205C33.486 62.0879 32.1103 61.518 31.0959 60.5037C30.0816 59.4894 29.5117 58.1136 29.5117 56.6791V26.9342C29.5117 25.4997 30.0816 24.1239 31.0959 23.1096C32.1103 22.0952 33.486 21.5254 34.9205 21.5254H46.6387M29.5126 53.6505H53.8498" stroke="black" stroke-width="2" stroke-linecap="round" stroke-linejoin="round"/>
<path d="M61.3097 29.6062L57.3383 34.958C57.2573 35.067 57.1558 35.1587 57.0397 35.2281C56.9236 35.2974 56.7951 35.343 56.6615 35.3621C56.5279 35.3812 56.392 35.3736 56.2613 35.3396C56.1307 35.3056 56.008 35.246 55.9002 35.164C55.862 35.1348 55.8259 35.1029 55.7922 35.0685L53.7416 32.9965M49.0566 31.9487C49.0566 34.1949 49.9489 36.349 51.5372 37.9372C53.1254 39.5255 55.2795 40.4177 57.5256 40.4177C59.7718 40.4177 61.9259 39.5255 63.5141 37.9372C65.1024 36.349 65.9946 34.1949 65.9946 31.9487C65.9946 29.7026 65.1024 27.5485 63.5141 25.9602C61.9259 24.372 59.7718 23.4797 57.5256 23.4797C55.2795 23.4797 53.1254 24.372 51.5372 25.9602C49.9489 27.5485 49.0566 29.7026 49.0566 31.9487Z" stroke="black" stroke-width="2" stroke-linecap="round" stroke-linejoin="round"/>
<path d="M61.3097 29.6062L57.3383 34.958C57.2573 35.067 57.1558 35.1587 57.0397 35.2281C56.9236 35.2974 56.7951 35.343 56.6615 35.3621C56.5279 35.3812 56.392 35.3736 56.2613 35.3396C56.1307 35.3056 56.008 35.246 55.9002 35.164C55.862 35.1348 55.8259 35.1029 55.7922 35.0685L53.7416 32.9965M49.0566 31.9487C49.0566 34.1949 49.9489 36.349 51.5372 37.9372C53.1254 39.5255 55.2795 40.4177 57.5256 40.4177C59.7718 40.4177 61.9259 39.5255 63.5141 37.9372C65.1024 36.349 65.9946 34.1949 65.9946 31.9487C65.9946 29.7026 65.1024 27.5485 63.5141 25.9602C61.9259 24.372 59.7718 23.4797 57.5256 23.4797C55.2795 23.4797 53.1254 24.372 51.5372 25.9602C49.9489 27.5485 49.0566 29.7026 49.0566 31.9487Z" stroke="#FF6B00" stroke-width="2" stroke-linecap="round" stroke-linejoin="round"/>
</svg>
