<svg width="31" height="9" viewBox="0 0 31 9" fill="none" xmlns="http://www.w3.org/2000/svg">
<path d="M30.3536 4.85355C30.5488 4.65829 30.5488 4.34171 30.3536 4.14645L27.1716 0.964466C26.9763 0.769204 26.6597 0.769204 26.4645 0.964466C26.2692 1.15973 26.2692 1.47631 26.4645 1.67157L29.2929 4.5L26.4645 7.32843C26.2692 7.52369 26.2692 7.84027 26.4645 8.03553C26.6597 8.2308 26.9763 8.2308 27.1716 8.03553L30.3536 4.85355ZM0 5H0.9375V4H0V5ZM2.8125 5H4.6875V4H2.8125V5ZM6.5625 5H8.4375V4H6.5625V5ZM10.3125 5H12.1875V4H10.3125V5ZM14.0625 5H15.9375V4H14.0625V5ZM17.8125 5H19.6875V4H17.8125V5ZM21.5625 5H23.4375V4H21.5625V5ZM25.3125 5H27.1875V4H25.3125V5ZM29.0625 5H30V4H29.0625V5Z" fill="#FF6B00"/>
</svg>
