<svg width="102" height="30" viewBox="0 0 102 30" fill="none" xmlns="http://www.w3.org/2000/svg">
<path d="M34.0354 0.217346C36.4138 0.217346 38.1047 0.73034 39.108 1.75633C39.8605 2.53596 40.2352 3.51848 40.2352 4.70967C40.2352 5.12122 40.1939 5.55016 40.1113 6.00229L39.6746 8.40206C39.4237 9.73527 38.99 10.8105 38.3762 11.6307C37.7594 12.4509 37.0778 13.0364 36.3253 13.3842L39.1759 22.3659H32.8492L30.2199 14.0943H28.2783L26.9946 22.3659H20.9837L24.9526 0.217346H34.0325H34.0354ZM32.0613 5.01398H29.7124L28.898 10.3642H31.0905C32.197 10.3642 32.9908 10.1033 33.4689 9.57876C33.9499 9.05707 34.1889 8.36438 34.1889 7.5036C34.1889 5.84289 33.4777 5.01109 32.0583 5.01109L32.0613 5.01398Z" fill="#002A3A"/>
<path d="M53.225 0.00289827C58.2562 0.00289827 60.7704 2.02299 60.7704 6.06028C60.7704 6.73558 60.6966 7.46595 60.552 8.24268L59.4572 14.3928C58.9556 17.2418 57.8697 19.3547 56.1995 20.7284C54.5293 22.1022 52.1804 22.7891 49.1528 22.7891C46.1252 22.7891 44.0182 22.1022 42.8261 20.7284C42.0117 19.7865 41.6044 18.4823 41.6044 16.8216C41.6044 16.0825 41.6871 15.2739 41.8553 14.3928L42.95 8.24268C43.9297 2.74756 47.3557 0 53.222 0L53.225 0.00289827ZM49.9997 18.0243C51.0443 18.0243 51.8794 17.7577 52.505 17.2244C53.1306 16.6911 53.5702 15.7086 53.8211 14.2711L54.8863 8.36731C54.9483 7.95865 54.9808 7.58767 54.9808 7.26017C54.9808 5.59946 54.125 4.76766 52.4135 4.76766C50.2623 4.80823 48.9787 6.00812 48.5626 8.36441L47.4973 14.2682C47.4147 14.7812 47.3734 15.3145 47.3734 15.868C47.3734 17.3027 48.2498 18.0214 50.0026 18.0214L49.9997 18.0243Z" fill="#002A3A"/>
<path d="M67.9204 16.0564C67.9204 17.4708 68.9591 18.178 71.0365 18.178C73.1139 18.178 74.1526 17.5432 74.1526 16.2709C74.1526 15.5956 73.7985 15.042 73.0873 14.6102C72.3762 14.1812 71.5175 13.8219 70.5053 13.5349C69.4932 13.248 68.481 12.9147 67.4689 12.535C66.4567 12.1553 65.5951 11.5612 64.8869 10.7526C64.1757 9.94397 63.8216 8.93247 63.8216 7.72389C63.8216 2.57656 67.1915 0.00579834 73.9342 0.00579834C76.3982 0.00579834 78.2602 0.463725 79.5232 1.37378C80.7862 2.28674 81.4177 3.55328 81.4177 5.17052C81.4177 5.76466 81.3409 6.33562 81.1816 6.8776C81.0252 7.41957 80.8629 7.80504 80.6976 8.03111L80.4468 8.39919H74.9051C75.3654 7.92677 75.5926 7.33263 75.5926 6.61675C75.5926 5.28355 74.7044 4.61695 72.9309 4.61695C70.6971 4.61695 69.5787 5.31543 69.5787 6.7095C69.5787 7.40798 69.9329 7.96155 70.644 8.37021C71.3522 8.78176 72.2139 9.10347 73.226 9.33823C74.2382 9.57299 75.2562 9.86571 76.2802 10.2135C77.3041 10.5613 78.1687 11.141 78.8799 11.9496C79.5881 12.7611 79.9452 13.8103 79.9452 15.1029C79.9452 17.7055 79.1514 19.6387 77.5668 20.8994C75.9792 22.1602 73.5388 22.792 70.2397 22.792C66.9407 22.792 64.6862 22.2181 63.4763 21.0704C62.5793 20.2096 62.1307 19.0214 62.1307 17.5027C62.1307 16.9288 62.1927 16.3028 62.3196 15.6275L62.414 15.1348H68.0502L67.9882 15.5029C67.9469 15.7086 67.9263 15.8941 67.9263 16.0564H67.9204Z" fill="#002A3A"/>
<path d="M88.5027 16.0564C88.5027 17.4708 89.5414 18.178 91.6188 18.178C93.6962 18.178 94.735 17.5432 94.735 16.2709C94.735 15.5956 94.3808 15.042 93.6697 14.6102C92.9585 14.1812 92.0998 13.8219 91.0877 13.5349C90.0755 13.248 89.0634 12.9147 88.0512 12.535C87.0391 12.1553 86.1774 11.5612 85.4692 10.7526C84.758 9.94397 84.4039 8.93247 84.4039 7.72389C84.4039 2.57656 87.7738 0.00579834 94.5166 0.00579834C96.9806 0.00579834 98.8426 0.463725 100.106 1.37378C101.369 2.28674 102 3.55328 102 5.17052C102 5.76466 101.923 6.33562 101.764 6.8776C101.608 7.41957 101.445 7.80504 101.28 8.03111L101.029 8.39919H95.4874C95.9478 7.92677 96.175 7.33263 96.175 6.61675C96.175 5.28355 95.2868 4.61695 93.5133 4.61695C91.2795 4.61695 90.1611 5.31543 90.1611 6.7095C90.1611 7.40798 90.5152 7.96155 91.2264 8.37021C91.9346 8.78176 92.7962 9.10347 93.8084 9.33823C94.8205 9.57299 95.8386 9.86571 96.8625 10.2135C97.8865 10.5613 98.7511 11.141 99.4623 11.9496C100.17 12.7611 100.528 13.8103 100.528 15.1029C100.528 17.7055 99.7337 19.6387 98.1491 20.8994C96.5615 22.1602 94.1212 22.792 90.8221 22.792C87.523 22.792 85.2685 22.2181 84.0587 21.0704C83.1616 20.2096 82.7131 19.0214 82.7131 17.5027C82.7131 16.9288 82.775 16.3028 82.9019 15.6275L82.9964 15.1348H88.6325L88.5706 15.5029C88.5293 15.7086 88.5086 15.8941 88.5086 16.0564H88.5027Z" fill="#002A3A"/>
<path d="M21.925 0.217346L14.7544 11.3815L17.9472 22.3601H11.9982L9.64935 14.2421H7.17651L5.70402 22.3601H0.0708008L4.04563 0.217346H9.68181L8.02341 9.44254H10.0271L15.976 0.217346H21.925Z" fill="#002A3A"/>
<path fill-rule="evenodd" clip-rule="evenodd" d="M15.1173 3.87786L16.7698 1.19116H22.9784L21.326 3.87786H15.1173Z" fill="#FF6B00"/>
<path d="M0 25.728H2.62923V26.4236H0.852803V27.5162H2.36955V28.2176H0.852803V29.916H0V25.7251V25.728Z" fill="#002A3A"/>
<path d="M16.7285 25.728H17.5813V29.9189H16.7285V25.728Z" fill="#002A3A"/>
<path d="M31.3619 25.728H32.2324L33.4718 27.9596L33.8997 28.8668H33.9292C33.882 28.4321 33.82 27.8756 33.82 27.4003V25.7309H34.6286V29.9218H33.764L32.5305 27.6785L32.0967 26.7771H32.0672C32.1085 27.2293 32.1705 27.7568 32.1705 28.2379V29.9189H31.3619V25.728Z" fill="#002A3A"/>
<path d="M49.5098 28.8436H48.1259L47.8249 29.9189H46.9603L48.3265 25.728H49.3298L50.702 29.9189H49.8079L49.5098 28.8436ZM49.3239 28.1915L49.197 27.7336C49.0642 27.2988 48.9492 26.8177 48.8223 26.3627H48.7987C48.6895 26.8206 48.5626 27.2959 48.4357 27.7336L48.3088 28.1915H49.3239Z" fill="#002A3A"/>
<path d="M63.0396 25.728H63.9101L65.1494 27.9596L65.5773 28.8668H65.6068C65.5596 28.4321 65.4976 27.8756 65.4976 27.4003V25.7309H66.3062V29.9218H65.4416L64.2081 27.6785L63.7743 26.7771H63.7448C63.7861 27.2293 63.8481 27.7568 63.8481 28.2379V29.9189H63.0396V25.728Z" fill="#002A3A"/>
<path d="M78.8533 27.8408C78.8533 26.4583 79.7593 25.6497 80.8363 25.6497C81.3793 25.6497 81.8101 25.9048 82.0875 26.1888L81.639 26.7221C81.4265 26.5192 81.1786 26.3714 80.854 26.3714C80.2078 26.3714 79.7238 26.9163 79.7238 27.8147C79.7238 28.7132 80.1635 29.2755 80.8363 29.2755C81.1993 29.2755 81.4885 29.1045 81.7186 28.861L82.1672 29.3827C81.816 29.7856 81.3586 30 80.8068 30C79.7297 30 78.8533 29.2407 78.8533 27.8437V27.8408Z" fill="#002A3A"/>
<path d="M95.0094 25.728H97.6268V26.4236H95.8622V27.3916H97.3612V28.093H95.8622V29.2146H97.6888V29.916H95.0064V25.7251L95.0094 25.728Z" fill="#002A3A"/>
</svg>
