<svg width="102" height="30" viewBox="0 0 102 30" fill="none" xmlns="http://www.w3.org/2000/svg">
<path d="M34.0354 0.217377C36.4138 0.217377 38.1047 0.730371 39.108 1.75636C39.8604 2.53599 40.2352 3.51851 40.2352 4.7097C40.2352 5.12125 40.1939 5.55019 40.1113 6.00233L39.6745 8.40209C39.4237 9.7353 38.9899 10.8106 38.3762 11.6308C37.7594 12.451 37.0778 13.0364 36.3253 13.3842L39.1758 22.366H32.8492L30.2199 14.0943H28.2783L26.9946 22.366H20.9837L24.9526 0.217377H34.0325H34.0354ZM32.0613 5.01401H29.7124L28.8979 10.3642H31.0904C32.197 10.3642 32.9908 10.1034 33.4688 9.57879C33.9498 9.0571 34.1889 8.36442 34.1889 7.50363C34.1889 5.84292 33.4777 5.01112 32.0583 5.01112L32.0613 5.01401Z" fill="white"/>
<path d="M53.225 0.00289827C58.2562 0.00289827 60.7704 2.02299 60.7704 6.06028C60.7704 6.73558 60.6966 7.46595 60.552 8.24268L59.4572 14.3928C58.9556 17.2418 57.8696 19.3547 56.1994 20.7284C54.5292 22.1022 52.1804 22.7891 49.1528 22.7891C46.1252 22.7891 44.0182 22.1022 42.8261 20.7284C42.0116 19.7865 41.6044 18.4823 41.6044 16.8216C41.6044 16.0825 41.687 15.2739 41.8552 14.3928L42.95 8.24268C43.9297 2.74756 47.3557 0 53.222 0L53.225 0.00289827ZM49.9997 18.0243C51.0443 18.0243 51.8794 17.7577 52.5049 17.2244C53.1305 16.6911 53.5702 15.7086 53.821 14.2711L54.8863 8.36731C54.9483 7.95865 54.9807 7.58767 54.9807 7.26017C54.9807 5.59946 54.125 4.76766 52.4135 4.76766C50.2623 4.80823 48.9786 6.00812 48.5626 8.36441L47.4973 14.2682C47.4147 14.7812 47.3734 15.3145 47.3734 15.868C47.3734 17.3027 48.2498 18.0214 50.0026 18.0214L49.9997 18.0243Z" fill="white"/>
<path d="M67.9203 16.0564C67.9203 17.4708 68.959 18.178 71.0364 18.178C73.1139 18.178 74.1526 17.5432 74.1526 16.2709C74.1526 15.5956 73.7985 15.042 73.0873 14.6102C72.3761 14.1812 71.5174 13.8219 70.5053 13.5349C69.4931 13.248 68.481 12.9147 67.4688 12.535C66.4567 12.1553 65.595 11.5612 64.8868 10.7526C64.1757 9.94397 63.8216 8.93247 63.8216 7.72389C63.8216 2.57656 67.1915 0.00579834 73.9342 0.00579834C76.3982 0.00579834 78.2602 0.463725 79.5232 1.37378C80.7861 2.28674 81.4176 3.55328 81.4176 5.17052C81.4176 5.76466 81.3409 6.33562 81.1816 6.8776C81.0252 7.41957 80.8629 7.80504 80.6976 8.03111L80.4468 8.39919H74.905C75.3654 7.92677 75.5926 7.33263 75.5926 6.61675C75.5926 5.28355 74.7044 4.61695 72.9309 4.61695C70.6971 4.61695 69.5787 5.31543 69.5787 6.7095C69.5787 7.40798 69.9328 7.96155 70.644 8.37021C71.3522 8.78176 72.2138 9.10347 73.226 9.33823C74.2381 9.57299 75.2562 9.86572 76.2802 10.2135C77.3041 10.5613 78.1687 11.141 78.8799 11.9496C79.5881 12.7611 79.9451 13.8103 79.9451 15.1029C79.9451 17.7055 79.1514 19.6387 77.5667 20.8994C75.9792 22.1602 73.5388 22.792 70.2397 22.792C66.9406 22.792 64.6862 22.2181 63.4763 21.0704C62.5792 20.2096 62.1307 19.0214 62.1307 17.5027C62.1307 16.9288 62.1927 16.3028 62.3196 15.6275L62.414 15.1348H68.0502L67.9882 15.5029C67.9469 15.7086 67.9262 15.8941 67.9262 16.0564H67.9203Z" fill="white"/>
<path d="M88.5027 16.0564C88.5027 17.4708 89.5414 18.178 91.6188 18.178C93.6962 18.178 94.735 17.5432 94.735 16.2709C94.735 15.5956 94.3808 15.042 93.6697 14.6102C92.9585 14.1812 92.0998 13.8219 91.0877 13.5349C90.0755 13.248 89.0634 12.9147 88.0512 12.535C87.0391 12.1553 86.1774 11.5612 85.4692 10.7526C84.758 9.94397 84.4039 8.93247 84.4039 7.72389C84.4039 2.57656 87.7738 0.00579834 94.5166 0.00579834C96.9806 0.00579834 98.8426 0.463725 100.106 1.37378C101.369 2.28674 102 3.55328 102 5.17052C102 5.76466 101.923 6.33562 101.764 6.8776C101.608 7.41957 101.445 7.80504 101.28 8.03111L101.029 8.39919H95.4874C95.9478 7.92677 96.175 7.33263 96.175 6.61675C96.175 5.28355 95.2868 4.61695 93.5133 4.61695C91.2795 4.61695 90.1611 5.31543 90.1611 6.7095C90.1611 7.40798 90.5152 7.96155 91.2264 8.37021C91.9346 8.78176 92.7962 9.10347 93.8084 9.33823C94.8205 9.57299 95.8386 9.86572 96.8625 10.2135C97.8865 10.5613 98.7511 11.141 99.4623 11.9496C100.17 12.7611 100.528 13.8103 100.528 15.1029C100.528 17.7055 99.7337 19.6387 98.1491 20.8994C96.5615 22.1602 94.1212 22.792 90.8221 22.792C87.523 22.792 85.2685 22.2181 84.0587 21.0704C83.1616 20.2096 82.7131 19.0214 82.7131 17.5027C82.7131 16.9288 82.775 16.3028 82.9019 15.6275L82.9964 15.1348H88.6325L88.5706 15.5029C88.5293 15.7086 88.5086 15.8941 88.5086 16.0564H88.5027Z" fill="white"/>
<path d="M21.925 0.217377L14.7544 11.3815L17.9472 22.3602H11.9983L9.64937 14.2421H7.17653L5.70405 22.3602H0.0708237L4.04565 0.217377H9.68183L8.02344 9.44257H10.0271L15.976 0.217377H21.925Z" fill="white"/>
<path fill-rule="evenodd" clip-rule="evenodd" d="M15.1173 3.87789L16.7698 1.19119H22.9785L21.326 3.87789H15.1173Z" fill="#FF6B00"/>
<path d="M0 25.7279H2.62923V26.4235H0.852803V27.5162H2.36955V28.2175H0.852803V29.9159H0V25.725V25.7279Z" fill="white"/>
<path d="M16.7285 25.7279H17.5813V29.9188H16.7285V25.7279Z" fill="white"/>
<path d="M31.3619 25.7279H32.2324L33.4718 27.9596L33.8997 28.8668H33.9292C33.882 28.432 33.82 27.8756 33.82 27.4002V25.7308H34.6285V29.9217H33.7639L32.5305 27.6785L32.0967 26.7771H32.0672C32.1085 27.2292 32.1705 27.7567 32.1705 28.2378V29.9188H31.3619V25.7279Z" fill="white"/>
<path d="M49.5098 28.8436H48.1258L47.8249 29.9188H46.9603L48.3265 25.7279H49.3298L50.702 29.9188H49.8078L49.5098 28.8436ZM49.3239 28.1915L49.197 27.7335C49.0642 27.2988 48.9491 26.8177 48.8223 26.3627H48.7986C48.6895 26.8206 48.5626 27.2959 48.4357 27.7335L48.3088 28.1915H49.3239Z" fill="white"/>
<path d="M63.0396 25.7279H63.9101L65.1495 27.9596L65.5773 28.8668H65.6068C65.5596 28.432 65.4977 27.8756 65.4977 27.4002V25.7308H66.3062V29.9217H65.4416L64.2081 27.6785L63.7743 26.7771H63.7448C63.7862 27.2292 63.8481 27.7567 63.8481 28.2378V29.9188H63.0396V25.7279Z" fill="white"/>
<path d="M78.8533 27.8408C78.8533 26.4583 79.7593 25.6497 80.8363 25.6497C81.3793 25.6497 81.8101 25.9047 82.0875 26.1888L81.639 26.7221C81.4265 26.5192 81.1786 26.3714 80.854 26.3714C80.2078 26.3714 79.7238 26.9162 79.7238 27.8147C79.7238 28.7132 80.1635 29.2754 80.8363 29.2754C81.1993 29.2754 81.4885 29.1044 81.7186 28.861L82.1672 29.3827C81.816 29.7855 81.3586 30 80.8068 30C79.7297 30 78.8533 29.2406 78.8533 27.8437V27.8408Z" fill="white"/>
<path d="M95.0094 25.7279H97.6268V26.4235H95.8622V27.3915H97.3612V28.0929H95.8622V29.2146H97.6888V29.9159H95.0064V25.725L95.0094 25.7279Z" fill="white"/>
</svg>
